<svg width="66" height="62" viewBox="0 0 66 62" fill="none" xmlns="http://www.w3.org/2000/svg">
<g clip-path="url(#clip0_229_421)">
<path d="M62.2594 0.47168H26.3748V12.4106H-1.52588e-05V61.4717H66V0.47168H62.2594ZM3.74061 16.1306H26.3748V57.7517H3.74061V16.1306ZM62.2594 57.7517H30.1144V4.19167H62.2594V57.7517Z" fill="#F07156"/>
<path d="M12.5814 21.7883H8.18932V28.2114H12.5814V21.7883Z" fill="#F07156"/>
<path d="M21.8724 21.7883H17.4803V28.2114H21.8724V21.7883Z" fill="#F07156"/>
<path d="M12.5814 33.6921H8.18932V40.1152H12.5814V33.6921Z" fill="#F07156"/>
<path d="M21.8724 33.6921H17.4803V40.1152H21.8724V33.6921Z" fill="#F07156"/>
<path d="M12.5814 45.5952H8.18932V52.0183H12.5814V45.5952Z" fill="#F07156"/>
<path d="M21.8724 45.5952H17.4803V52.0183H21.8724V45.5952Z" fill="#F07156"/>
<path d="M39.09 21.7883H34.6979V28.2114H39.09V21.7883Z" fill="#F07156"/>
<path d="M48.381 21.7883H43.9889V28.2114H48.381V21.7883Z" fill="#F07156"/>
<path d="M39.09 33.6921H34.6979V40.1152H39.09V33.6921Z" fill="#F07156"/>
<path d="M48.381 33.6921H43.9889V40.1152H48.381V33.6921Z" fill="#F07156"/>
<path d="M39.09 45.5952H34.6979V52.0183H39.09V45.5952Z" fill="#F07156"/>
<path d="M48.381 45.5952H43.9889V52.0183H48.381V45.5952Z" fill="#F07156"/>
<path d="M57.5167 21.7883H53.1246V28.2114H57.5167V21.7883Z" fill="#F07156"/>
<path d="M39.09 9.88135H34.6979V16.3044H39.09V9.88135Z" fill="#F07156"/>
<path d="M48.381 9.88135H43.9889V16.3044H48.381V9.88135Z" fill="#F07156"/>
<path d="M57.5167 9.88135H53.1246V16.3044H57.5167V9.88135Z" fill="#F07156"/>
<path d="M57.5167 33.6921H53.1246V40.1152H57.5167V33.6921Z" fill="#F07156"/>
<path d="M57.5167 45.5952H53.1246V52.0183H57.5167V45.5952Z" fill="#F07156"/>
</g>
<defs>
<clipPath id="clip0_229_421">
<rect width="66" height="61" fill="white" transform="translate(-1.52588e-05 0.47168)"/>
</clipPath>
</defs>
</svg>
