<svg width="86" height="98" viewBox="0 0 86 98" fill="none" xmlns="http://www.w3.org/2000/svg">
<g clip-path="url(#clip0_232_509)">
<path d="M84.979 42.8926C83.963 42.0491 82.8781 41.3003 81.8302 40.5768C81.3677 40.2574 80.89 39.9277 80.4291 39.5981C80.1061 39.3665 79.7832 39.2313 79.4687 39.1941C78.2492 39.0488 77.1206 38.5653 75.9246 38.0531C75.1627 37.7269 74.3738 37.3888 73.5479 37.1403C71.6405 36.5639 70.7171 35.5379 70.1368 33.3556C69.3378 30.3502 68.9426 30.0628 66.2059 29.1872L65.9452 29.1027C65.8931 29.0858 65.8392 29.0672 65.7871 29.0537C65.0739 28.8559 64.4213 28.9404 63.952 29.2937C63.5265 29.6132 63.2859 30.1237 63.2758 30.7305C63.2523 32.0017 62.7006 32.6068 61.2406 32.9635C61.0169 33.0176 60.8285 33.1089 60.6738 33.1883C60.4282 32.0287 60.0363 30.717 59.0674 29.6098C59.5064 28.8644 59.9236 28.0936 60.3104 27.3701C60.704 26.6331 60.625 26.0516 60.4887 25.6916C60.3592 25.3467 60.0514 24.8785 59.3315 24.6114C58.7933 24.412 58.2449 24.1922 57.7151 23.9809C56.2955 23.413 54.8271 22.8264 53.2645 22.4917C52.9011 22.414 52.5378 22.3312 52.1745 22.2483C51.0593 21.9948 49.9055 21.7311 48.7163 21.6128C48.1949 21.5604 47.6835 21.5637 47.1907 21.5637C46.2689 21.5671 45.3993 21.5705 44.6307 21.2172C44.2488 21.0414 43.8906 21.1344 43.6971 21.1834C43.6786 21.1885 43.6601 21.1935 43.6433 21.1969C43.2026 21.2916 42.7603 21.3879 42.3196 21.4843C41.5189 21.6584 40.6897 21.8393 39.8773 22.0049C38.8664 22.2111 38.2154 22.8399 38.0556 23.751C36.7302 23.391 35.4098 23.0935 33.9482 23.2321C33.8775 23.2389 33.6992 23.1797 33.4906 22.9887C33.1795 22.7064 33.0096 22.3362 33.0079 22.13C33.0045 21.7108 33.0062 21.2916 33.0079 20.8741C33.0113 20.1472 33.013 19.395 32.9894 18.6479C32.9473 17.304 32.2544 16.6059 30.8734 16.5146C29.659 16.4352 28.2562 16.3405 26.8786 16.2273C27.8996 15.6035 28.4749 14.6485 28.9879 13.7999C29.0686 13.6647 29.151 13.5312 29.2334 13.3976C29.4891 12.9869 29.5833 12.5339 29.511 12.1062C29.8777 12.1789 30.2141 12.1214 30.4479 12.0808L30.5185 12.069C30.796 12.0234 31.0551 11.9372 31.2855 11.8628C31.5227 11.785 31.8456 11.6785 31.9449 11.7225C32.3721 11.9169 32.8077 12.0994 33.2299 12.2735C34.4124 12.7671 35.5292 13.232 36.488 13.9639C36.8294 14.2242 37.1036 14.444 37.3475 14.6367C38.2205 15.3331 38.7167 15.6475 39.302 15.6475C39.667 15.6475 40.0673 15.5241 40.614 15.2942C40.614 15.4599 40.6308 15.6323 40.6695 15.8115C40.799 16.4149 41.2464 17.4291 42.7989 17.4376C42.9671 17.4376 43.1337 17.4376 43.3002 17.4342C44.2606 17.4257 45.0898 17.4156 45.8013 17.8737C46.0705 18.0461 46.3783 18.1357 46.6894 18.1357C46.8425 18.1357 46.9956 18.1137 47.1453 18.0698C47.5725 17.943 47.9224 17.6438 48.1057 17.2449C48.1848 17.0708 48.1965 17.0437 48.7028 17.1164C48.8172 17.1316 48.9333 17.1249 49.0325 17.1232C49.0998 17.1232 49.1704 17.1198 49.2007 17.1232C50.4605 17.2635 51.3873 16.5992 51.6228 15.3872C51.9239 13.8371 50.6069 13.2489 50.1746 13.0545C49.8045 12.8888 49.4412 12.664 49.056 12.424C48.9282 12.3445 48.8004 12.2651 48.6726 12.189L48.5531 12.1163C48.2201 11.9101 47.7643 11.6278 47.1453 11.616C46.9266 11.6109 46.708 11.6092 46.4876 11.6059C45.7559 11.5974 45.0646 11.5889 44.3767 11.5146C43.9545 11.4689 43.5525 11.523 43.211 11.6633C42.9402 11.3354 42.5921 11.1342 42.3717 11.0075L41.0513 10.2502C39.7192 9.48784 38.387 8.7238 37.0565 7.95469C36.5385 7.65549 35.9228 7.49998 35.4451 7.549C35.1357 7.57605 34.8514 7.59971 34.5823 7.62169C34.0188 7.66902 33.5327 7.70959 33.0399 7.7603C31.9381 7.87186 30.9087 8.1795 29.9113 8.47532C29.7582 8.52096 29.6069 8.5666 29.4538 8.61054C28.6834 8.83536 28.1923 9.40332 28.1099 10.1674C28.0897 10.3482 28.0981 10.524 28.13 10.6931C28.0695 10.6778 28.0089 10.6643 27.945 10.6559C26.6465 10.4632 25.3278 10.3144 24.0528 10.1724L23.4187 10.1014C22.2884 9.97297 21.4423 10.6052 21.2153 11.7478C21.1783 11.9321 21.1379 12.1163 21.0958 12.3006C21.037 12.5626 20.9781 12.8314 20.926 13.1153C20.6451 13.1559 20.3574 13.1931 20.0799 13.2286C19.868 13.2556 19.6543 13.2827 19.4424 13.3114C19.4306 13.2979 19.4172 13.2793 19.4004 13.2556C18.5476 12.0335 18.3558 11.1275 18.7393 10.1251C18.8773 9.76337 18.9378 9.39994 18.9916 9.07877C19.0101 8.96552 19.0286 8.85227 19.0522 8.74239C19.2692 7.66733 18.8991 6.79341 18.0362 6.34378C17.0556 5.83498 16.4467 4.97966 16.0616 3.5716C15.9875 3.29776 15.8765 3.02392 15.7352 2.75516C15.4358 2.18889 14.9817 1.81532 14.4586 1.70207C13.9943 1.60064 13.5133 1.71897 13.1079 2.03168C12.7766 2.28862 12.7412 2.31397 12.2299 1.69699C12.0953 1.53472 11.9541 1.40118 11.8296 1.28286C11.7354 1.19327 11.6463 1.10875 11.5823 1.03269C10.8675 0.175676 9.86667 -0.0609741 8.90119 0.398802C7.51184 1.06311 6.01821 1.03607 4.20163 0.315975C4.0452 0.253432 3.90055 0.219625 3.78281 0.192579C3.71889 0.177366 3.65497 0.162153 3.62133 0.15032C2.97712 -0.084639 1.78457 -0.255365 0.997382 1.29469C0.141234 2.98166 -0.650997 5.22476 0.819088 7.61324C0.943558 7.81439 1.0327 8.09668 1.1269 8.39587C1.18409 8.57505 1.24296 8.76099 1.31528 8.95031L1.40443 9.18527C1.59282 9.68223 1.78961 10.1961 1.99818 10.7015C2.39009 11.6532 3.20924 12.0961 4.13603 11.856C4.66755 11.7191 5.05946 11.3996 5.27812 10.95C5.31681 10.9923 5.3555 11.0345 5.39418 11.0768C5.78609 11.501 6.14436 11.9574 6.52282 12.4409C6.83904 12.8432 7.16535 13.2607 7.51689 13.6596C7.53708 13.6833 7.5539 13.7036 7.56567 13.7188C7.5539 13.7408 7.53708 13.7695 7.51521 13.805C7.2259 14.2614 6.91641 14.8716 7.08966 15.5444C7.26459 16.2222 7.84825 16.6127 8.33772 16.8764C8.85073 17.1536 9.37552 17.4207 9.88181 17.6793C10.5984 18.0444 11.3384 18.4214 12.0348 18.8237C13.34 19.5759 14.6537 19.9089 16.0515 19.8446C17.3971 19.7821 18.4282 20.0695 19.2927 20.7524C21.2035 22.2618 23.3144 22.9735 25.5717 22.8704C25.5818 22.8923 25.5936 22.9245 25.607 22.9684C26.1335 24.7754 27.2823 26.1395 29.0198 27.0236C29.0619 27.0455 29.1527 27.1216 29.1813 27.1453C30.9188 28.626 32.685 29.221 34.5823 28.9624C34.7337 28.9421 34.9523 28.9726 35.1828 29.0047C35.3291 29.025 35.4889 29.0469 35.6571 29.0605C35.6773 29.8583 35.7244 30.668 35.7984 31.4726C35.8421 31.9543 35.7244 32.289 35.3779 32.6677C34.9405 33.146 34.5301 33.6464 34.1332 34.1315C33.6185 34.7586 33.1341 35.3503 32.5975 35.8962C31.4419 37.071 31.2166 38.3506 31.928 39.6962C32.0508 39.9294 32.0677 40.0917 31.8305 40.3841C31.1072 41.2733 30.9323 42.3483 31.3259 43.4944C31.4066 43.7277 31.4655 43.9981 31.5042 44.2973C31.669 45.5854 32.4444 46.3832 33.6858 46.5421C34.0541 46.5894 34.3401 46.7416 34.626 47.3568C35.2248 48.6466 35.9279 50.0242 36.8362 51.6909C37.2298 52.4127 37.3273 52.8454 37.2079 53.3441C37.0296 54.0861 36.9909 55.4537 38.715 56.2701C39.8991 56.8296 41.0866 57.4567 42.2355 58.0619C42.7973 58.3577 43.3591 58.6535 43.9225 58.9442C43.9949 58.9814 44.0419 59.0085 44.0722 59.0271C44.0621 59.5426 44.0689 60.0599 44.0739 60.5602C44.0857 61.5626 44.0975 62.5109 43.9915 63.444C43.4415 68.3156 42.6694 73.0401 41.6972 77.4857C40.5131 82.905 39.8403 87.8949 39.6384 92.7446C39.6199 93.1739 39.5779 94.1763 40.5215 94.7071C42.1177 95.6063 43.8216 96.5512 46.0436 97.7717C46.3244 97.9255 46.6171 98.0016 46.9031 98.0016C47.3623 98.0016 47.8046 97.8072 48.1579 97.4302C48.6894 96.8623 48.8054 96.0948 48.4673 95.3781C48.3328 95.0925 48.1881 94.8153 48.0485 94.5465L47.956 94.3673C47.6465 93.7723 47.3269 93.1553 47.3387 92.993C47.3808 92.8325 47.8854 92.3524 48.3731 91.8876L48.3883 91.8723C49.7406 90.5826 49.8769 90.1025 49.1418 88.5305C49.8214 88.2296 50.5446 87.6008 50.7263 86.2874C50.7498 86.1167 50.807 85.9223 50.8659 85.7161C50.9046 85.5859 50.9416 85.4557 50.9752 85.3239C51.0089 85.1887 51.0392 85.067 51.0661 84.9554C51.0896 84.8591 51.1148 84.7559 51.1367 84.6664C51.2124 84.6664 51.2948 84.6697 51.3739 84.6714C51.4866 84.6731 51.6127 84.6765 51.7523 84.6782C51.7658 84.6782 51.7776 84.6782 51.791 84.6782C52.9886 84.6782 53.7842 84.0849 53.9776 83.0673C56.3897 83.5541 58.3038 82.741 59.5283 80.7109C59.5451 80.6906 59.5653 80.6721 59.5838 80.6535C59.6309 80.6044 59.678 80.5554 59.7217 80.5047C60.038 80.1362 60.2011 79.7187 60.2062 79.2809C61.2036 79.3468 62.1422 78.9158 62.9277 78.008C62.9495 77.9911 62.9731 77.9742 62.9949 77.9556C63.2237 77.7646 63.4541 77.5736 63.6863 77.3826C66.2429 75.2714 68.8871 73.0891 69.4371 69.225C69.9148 68.9613 70.3824 68.679 70.8348 68.4051C72.2107 67.5735 73.5093 66.7875 75.0231 66.5407C75.817 66.4122 76.4847 66.0336 77.0095 65.4166C77.8203 64.4615 78.6848 63.5082 79.4485 62.6681C79.9463 62.1204 80.2609 61.5254 80.4106 60.8509C80.5502 60.2221 80.6999 59.5798 80.8445 58.9594C81.0968 57.8793 81.3592 56.7603 81.5779 55.6447C81.7461 54.7876 82.0506 54.2636 82.6258 53.8394C83.8991 52.9012 84.7451 51.8261 85.2851 50.4553C85.9411 48.792 85.9646 47.1591 85.9865 45.582C85.9882 45.4146 85.9915 45.2456 85.9949 45.0766C86.0117 44.1908 85.677 43.4758 84.9756 42.8926H84.979ZM67.0671 66.4629C66.7189 66.6489 66.5322 66.9514 66.4078 67.1509C66.3842 67.1881 66.3624 67.2236 66.3388 67.2574C66.2059 67.4416 66.1151 67.6698 66.0831 67.898C65.6324 71.0015 63.4844 72.9606 61.133 74.8555C60.2566 75.5621 59.8815 75.5723 59.3231 75.3271C58.7394 75.0719 58.1255 74.957 57.5839 74.8555C56.8556 74.7203 56.1727 74.9434 55.7555 75.4539C55.3367 75.9695 55.2526 76.6946 55.5335 77.3978C55.6681 77.7359 55.8279 78.0452 55.9809 78.3461C56.0381 78.456 56.0936 78.5676 56.1491 78.6774C56.2786 78.9411 56.1777 79.1575 56.1273 79.2369C56.0701 79.3316 55.9321 79.4888 55.6681 79.4905C55.039 79.4905 54.42 79.4516 53.7607 79.4077C53.4646 79.3874 53.1686 79.3688 52.8709 79.3536C51.6094 79.2877 50.7768 79.9165 50.6052 81.0439C50.5985 81.0439 50.5917 81.0439 50.585 81.0439C48.6288 81.0946 48.2335 81.4175 47.7575 83.3529C47.7373 83.4358 47.7138 83.5186 47.6903 83.6031C47.6247 83.833 47.5523 84.0916 47.522 84.3807C47.4396 85.1836 47.12 85.5791 46.3446 85.8378C45.6886 86.0575 45.2665 86.4007 45.0545 86.8858C44.7619 87.5586 45.0007 88.2465 45.2059 88.7046C45.3556 89.0376 45.5087 89.3824 45.5524 89.543C45.4498 89.6732 45.174 89.9267 44.9065 90.1718C44.8308 90.2411 44.7568 90.3121 44.6862 90.3865C44.4641 90.6164 44.2791 90.7854 44.1176 90.9359C43.6332 91.3804 43.3792 91.732 43.2918 92.1242C43.2867 92.1225 43.2834 92.1191 43.2783 92.1174C43.2817 92.087 43.285 92.0583 43.2867 92.0329C43.2951 91.9619 43.3019 91.8909 43.3069 91.8233C43.5592 88.1874 43.8805 84.3198 44.7568 80.5301C45.9847 75.219 46.7752 69.8403 47.5439 64.3398C47.7542 62.832 47.7474 61.3006 47.7424 59.8215C47.7407 59.2485 47.7373 58.6552 47.7491 58.0788C47.7643 57.2522 47.3236 56.6031 46.4371 56.1501C45.6903 55.7697 44.9469 55.3827 44.2034 54.9956C43.1488 54.4479 42.0589 53.8799 40.9739 53.3373C40.91 53.3052 40.8663 53.2799 40.8343 53.2613C40.836 53.2545 40.8377 53.246 40.8411 53.2376C41.0328 52.5276 40.9454 51.7873 40.5854 51.0925L40.4979 50.9235C39.5123 49.0202 38.4947 47.0509 37.5359 45.0985C36.9977 44.0015 36.2374 43.3947 35.1441 43.1901C35.0398 43.1698 34.8834 43.0397 34.8009 42.8385C34.7454 42.6999 34.7505 42.5934 34.774 42.5613C35.7816 41.1059 35.9548 39.7215 35.3005 38.3337C35.3139 38.3185 35.3274 38.3016 35.3442 38.2813C35.6604 37.9128 35.9716 37.5342 36.2727 37.1674C36.8597 36.4558 37.4669 35.7188 38.1011 35.0528C39.1439 33.9557 39.5627 32.7826 39.4147 31.3576C39.3172 30.411 39.297 29.4644 39.2768 28.4621C39.2717 28.2119 39.2667 27.9617 39.26 27.7099C39.7023 27.7538 40.1615 27.7099 40.5602 27.4242C41.1186 27.0253 41.2548 26.3694 41.3087 25.9096C41.3709 25.3755 41.4819 25.269 42.0067 25.2335C42.1732 25.2233 42.3196 25.1912 42.4373 25.1659L42.4794 25.1574C42.7165 25.1067 42.9772 25.0509 43.1421 25.0273C43.2211 25.176 43.3321 25.4245 43.4263 25.6341C43.5811 25.9806 44.0554 27.0337 45.3035 26.9543C46.1933 26.8968 46.8358 26.2815 47.0208 25.3096C47.0292 25.2656 47.0376 25.2335 47.0444 25.2115C47.0915 25.2031 47.1823 25.1946 47.3471 25.2014C50.0501 25.318 52.8086 25.9654 56.2383 27.2923C56.1458 27.4563 56.0583 27.6203 55.9708 27.7809C55.8161 28.0648 55.6714 28.3336 55.515 28.5956C54.9902 29.478 55.0524 30.3908 55.6883 31.0973C56.6907 32.2163 57.1112 33.6126 57.3888 34.833C57.557 35.57 58.0851 36.2259 58.8387 36.6315C59.6074 37.0457 60.4972 37.1302 61.2204 36.8564C61.9 36.5994 62.5744 36.3171 63.2288 36.0467C63.7973 35.81 64.386 35.5649 64.9646 35.3418C66.0461 34.9243 66.2598 33.9828 66.3859 33.4216C66.3893 33.4047 66.3926 33.3878 66.3977 33.3709C66.4885 33.6413 66.5777 33.9118 66.6668 34.1822C67.0604 35.3689 67.4658 36.5961 67.9535 37.7894C68.3 38.638 68.8585 39.1806 69.6625 39.4494C71.5295 40.0714 73.3024 40.9081 75.2686 41.8615C75.6168 42.0305 76.0525 42.2418 76.552 42.2723C78.335 42.3804 79.6991 43.42 81.1423 44.5187C81.5325 44.8146 81.9345 45.1222 82.3567 45.418C82.4677 47.6138 82.3954 49.392 80.8361 50.6057C79.0717 51.9783 78.1466 53.552 77.9212 55.5568C77.8842 55.883 77.785 56.2329 77.679 56.6031C77.5394 57.0899 77.3947 57.5953 77.3594 58.1498C77.2484 59.8824 76.1769 61.0065 74.9356 62.308C74.7254 62.5278 74.5151 62.7475 74.3099 62.9723C74.2073 63.0839 73.9348 63.1363 73.6455 63.1904C73.5328 63.2124 73.4201 63.2344 73.3125 63.258C71.6035 63.6519 70.2058 64.5393 68.8534 65.3963C68.2462 65.7817 67.6726 66.1451 67.0738 66.4663L67.0671 66.4629ZM29.4084 21.4471C29.4185 21.8038 29.4286 22.1418 29.3983 22.4562C29.3949 22.4917 29.3916 22.5255 29.3899 22.5594C29.0871 22.1131 28.8584 21.6178 28.7019 21.0668C28.5707 20.6104 28.3504 20.2351 28.0544 19.9528C28.4496 19.9731 28.8483 19.9917 29.2452 20.0052C29.331 20.0086 29.3932 20.0154 29.437 20.0221C29.437 20.0593 29.437 20.1083 29.4302 20.1726C29.3865 20.6138 29.3983 21.0363 29.4101 21.4471H29.4084ZM22.9006 16.4487C22.9326 16.7986 23.0032 17.1299 23.0672 17.4274C23.126 17.6996 23.1799 17.9582 23.2 18.1864C23.2286 18.5194 23.3211 18.7848 23.454 18.9944C22.8721 18.7949 22.2901 18.4636 21.6845 17.9869C21.1312 17.5525 20.5441 17.1975 19.9151 16.9203C20.7241 16.7952 21.4861 16.6904 22.2245 16.6059C22.47 16.5772 22.6954 16.5248 22.9023 16.4504L22.9006 16.4487ZM10.9381 12.1637C10.5159 11.6532 10.1005 11.1376 9.68501 10.6221C9.12154 9.92564 8.53956 9.20386 7.94917 8.50405C7.42438 7.882 7.16871 7.35799 7.08966 6.75285C7.00556 6.10544 6.86763 5.47663 6.73307 4.8681C6.71961 4.80556 6.70616 4.74301 6.69102 4.68047C7.40924 4.67202 8.05346 4.45058 8.60516 4.25957C8.83055 4.18182 9.04416 4.10744 9.25105 4.04997C9.37216 4.01616 9.43271 4.01109 9.45794 4.01109C9.46803 4.01954 9.48485 4.03476 9.5084 4.0618C9.70183 4.28324 9.90368 4.47763 10.0988 4.66695C10.2687 4.8326 10.4301 4.98811 10.5714 5.1487C11.4124 6.0953 12.2686 6.41646 13.1264 6.10882C13.552 7.29038 14.2904 8.21331 15.3265 8.8641C14.1306 11.7005 15.5284 13.9436 16.7646 15.9247L16.8269 16.0244C16.8672 16.0887 16.9093 16.1512 16.953 16.2104C16.6906 16.1918 16.4215 16.1816 16.1473 16.1816C15.9589 16.1816 15.7672 16.1867 15.5738 16.1952C15.0456 16.2188 14.5679 16.0988 14.0734 15.8165C13.1937 15.3145 12.2854 14.8513 11.3553 14.3865C11.5891 13.8625 11.6849 13.0714 10.9348 12.162L10.9381 12.1637Z" fill="#F07156"/>
</g>
<defs>
<clipPath id="clip0_232_509">
<rect width="86" height="98" fill="white"/>
</clipPath>
</defs>
</svg>
