<svg width="66" height="56" viewBox="0 0 66 56" fill="none" xmlns="http://www.w3.org/2000/svg">
<g clip-path="url(#clip0_229_446)">
<path d="M21.7952 27.3006H21.7971C25.3889 27.3006 28.7549 25.8936 31.2743 23.3385C33.7718 20.8054 35.1486 17.4497 35.1486 13.8914C35.1534 6.49754 29.1665 0.477391 21.8037 0.47168H21.7933C18.2338 0.47168 14.8885 1.8463 12.372 4.34422C9.83088 6.8669 8.42945 10.2539 8.42755 13.8828C8.42566 17.4973 9.81571 20.8777 12.3417 23.4023C14.8573 25.9164 18.2148 27.3015 21.7942 27.3015L21.7952 27.3006ZM15.3712 7.42284C17.0779 5.71789 19.3574 4.78022 21.7895 4.78022H21.798C24.234 4.78212 26.5134 5.73122 28.2183 7.45235C29.9155 9.16586 30.8542 11.4515 30.8618 13.8885C30.8618 16.3293 29.9089 18.6254 28.1794 20.3542C26.4707 22.061 24.215 22.9996 21.8227 22.9996C21.8085 22.9996 21.7933 22.9996 21.7791 22.9996C19.346 22.9882 17.0684 22.0439 15.3655 20.3418C13.6559 18.6321 12.7134 16.3407 12.7134 13.8885C12.7134 11.4315 13.6568 9.13635 15.3712 7.42379V7.42284Z" fill="#F07156"/>
<path d="M52.5499 35.7377C52.5812 35.7377 52.6134 35.7377 52.6447 35.7377C52.6722 35.7377 52.6997 35.7377 52.7263 35.7377C55.4808 35.7377 58.0873 34.6506 60.0748 32.6724C62.0868 30.6695 63.1943 27.9974 63.1934 25.1501C63.1934 22.318 62.1029 19.6592 60.125 17.663C58.1395 15.6591 55.4826 14.5539 52.6457 14.552H52.64C49.7916 14.552 47.1281 15.6639 45.1407 17.6839C43.177 19.6792 42.0913 22.3256 42.0837 25.1349C42.0761 27.9745 43.1874 30.6514 45.2147 32.6724C47.2002 34.6515 49.8011 35.7387 52.5508 35.7387L52.5499 35.7377ZM48.2223 20.6807C49.3971 19.506 50.9645 18.8596 52.639 18.8596H52.6561C54.3391 18.8643 55.9122 19.5193 57.086 20.7064C58.2552 21.8887 58.9009 23.4651 58.9047 25.1472C58.9075 26.8341 58.2514 28.421 57.0567 29.6138C55.8714 30.798 54.3078 31.4425 52.6494 31.432H52.6371C50.9901 31.453 49.4256 30.8075 48.2384 29.6252C47.0371 28.4305 46.3771 26.8436 46.3781 25.1568C46.38 23.4585 47.0342 21.8697 48.2223 20.6807Z" fill="#F07156"/>
<path d="M65.9981 46.6738C65.9981 46.1703 65.9962 45.6657 65.9962 45.1612C65.9962 44.808 65.9924 44.4301 65.9488 44.0388C65.7136 41.9065 64.7436 40.1368 63.0682 38.7793C61.6715 37.6484 59.997 37.0801 58.0949 37.081C54.597 37.0886 51.0261 37.0886 47.1783 37.081H47.1603C45.6309 37.081 44.2399 37.4609 43.0101 38.2157C42.7569 37.34 42.4032 36.4841 41.9557 35.6636C40.6216 33.219 38.6854 31.3322 36.2001 30.0556C34.354 29.1075 32.3012 28.6248 30.0985 28.6229C24.9982 28.6172 19.9045 28.6201 14.7017 28.6229H14.4173C13.8332 28.6229 13.2301 28.622 12.6242 28.6572C11.4229 28.7286 10.3467 28.9256 9.33401 29.2579C6.04188 30.3403 3.49503 32.4098 1.76648 35.4075C0.659933 37.3257 0.0777424 39.3505 0.0360219 41.4248C-0.0189734 44.1264 -9.48695e-06 46.869 0.0180062 49.5211V55.4137L65.9886 55.4718V50.593C65.9905 50.5435 65.9934 50.495 65.9934 50.4455C66.0019 49.187 66 47.9095 65.9981 46.6738ZM39.2903 51.1652H34.7485V51.1633C32.2803 51.1633 29.8112 51.1633 27.3431 51.1633H18.1683C13.837 51.1633 9.50469 51.1633 5.17334 51.1633C5.03585 51.1633 4.92681 51.1518 4.83673 51.1328H4.29531V46.9823H4.2991C4.29247 45.1936 4.29057 43.3611 4.3285 41.56C4.36832 39.6627 5.04818 37.8873 6.35005 36.2842C7.63485 34.703 9.30177 33.6559 11.3063 33.1742C11.9833 33.0114 12.6849 32.9286 13.3894 32.9286H13.3904C15.1427 32.9286 16.8968 32.9286 18.6491 32.9277C22.4295 32.9267 26.338 32.9248 30.1829 32.9324C32.4548 32.9372 34.464 33.6921 36.1565 35.1781C37.868 36.6812 38.8949 38.608 39.2059 40.905C39.2571 41.281 39.2818 41.6961 39.2837 42.2092C39.2913 43.9018 39.2913 45.6172 39.2903 47.2983V51.1642V51.1652ZM61.7132 51.1337H61.186C61.1045 51.1547 61.0153 51.1652 60.9177 51.1652H60.9129C60.0463 51.1623 59.1711 51.1614 58.3035 51.1614C57.6919 51.1614 57.0832 51.1614 56.4839 51.1614C55.8752 51.1614 55.2664 51.1614 54.6577 51.1614H50.1784C49.4919 51.1614 48.8045 51.1614 48.118 51.1614V51.1642H43.5761V47.2983H43.5828C43.5828 46.4854 43.5828 45.6648 43.5761 44.8518C43.5648 43.2164 44.7035 41.8151 46.3458 41.4457C46.5051 41.4096 46.6815 41.3915 46.8702 41.3915H46.8711C48.2744 41.3915 49.6778 41.3915 51.0811 41.3915C53.4355 41.3915 55.8695 41.3896 58.2627 41.3953C59.484 41.3981 60.4284 41.9131 61.1509 42.9698C61.5169 43.5048 61.7037 44.115 61.7047 44.7833C61.7066 45.4401 61.7047 46.097 61.7037 46.7538C61.7037 46.83 61.7037 46.9071 61.7037 46.9832H61.7151V51.1337H61.7132Z" fill="#F07156"/>
</g>
<defs>
<clipPath id="clip0_229_446">
<rect width="66" height="55" fill="white" transform="translate(0 0.47168)"/>
</clipPath>
</defs>
</svg>
