<svg width="21" height="22" viewBox="0 0 21 22" fill="none" xmlns="http://www.w3.org/2000/svg">
<path d="M20.4972 10.9011C20.4972 13.8225 20.4936 16.7441 20.4999 19.6655C20.5015 20.3602 19.9843 21.0004 19.2377 21.1263C19.1624 21.139 19.0871 21.1419 19.0111 21.1419C13.1707 21.1419 7.33019 21.1419 1.48973 21.1418C0.740227 21.1418 0.108432 20.5923 0.00606892 19.8508C-0.000461659 19.8034 0.000449584 19.755 0.000449584 19.707C0.00029771 13.831 -0.0013729 7.95516 0.00287957 2.07931C0.00333519 1.52679 0.282024 1.11931 0.752074 0.842295C0.989908 0.702116 1.24961 0.643188 1.52815 0.643188C7.35585 0.645163 13.1837 0.644555 19.0116 0.644707C19.711 0.644707 20.3235 1.13815 20.4718 1.81991C20.4919 1.91179 20.4977 2.00459 20.4977 2.0986C20.4972 5.0328 20.4972 7.96685 20.4972 10.9011ZM11.008 9.85449C10.9812 9.81592 10.99 9.78478 10.9899 9.75578C10.9891 9.39659 10.9896 9.03741 10.9894 8.67823C10.9894 8.57511 10.9891 8.5748 10.8839 8.5748C9.95305 8.5748 9.02206 8.5748 8.09123 8.5748C7.98988 8.5748 7.93991 8.62583 7.94133 8.72789C7.94133 8.73291 7.94133 8.73807 7.94133 8.74308C7.9427 9.16301 7.94588 9.58294 7.94513 10.0027C7.94102 12.5624 7.95667 15.1222 7.93039 17.6819C7.92918 17.7952 7.93039 17.7954 8.04065 17.7954C8.98668 17.7954 9.93285 17.7954 10.8789 17.7954C10.9525 17.7954 10.9893 17.7575 10.9894 17.6816C10.9894 16.0147 10.9894 14.3477 10.9897 12.6806C10.9897 12.5568 10.9908 12.4333 11.0023 12.3094C11.0505 11.79 11.3049 11.3871 11.7102 11.0784C12.0516 10.8184 12.4464 10.7363 12.8715 10.7814C13.3843 10.8359 13.7557 11.0904 13.9803 11.5543C14.1651 11.9358 14.2237 12.3466 14.2251 12.7636C14.2301 14.4002 14.2271 16.037 14.2271 17.6736C14.2271 17.7547 14.2665 17.7952 14.3454 17.7952C15.2814 17.7952 16.2172 17.7952 17.1532 17.7952C17.2354 17.7952 17.2765 17.7535 17.2766 17.6699C17.2766 15.9624 17.2758 14.255 17.2773 12.5475C17.2776 12.2058 17.2637 11.8656 17.2143 11.5271C17.1311 10.956 16.9716 10.4107 16.6758 9.91145C16.3592 9.37761 15.9272 8.96512 15.364 8.69873C14.6778 8.37433 13.9525 8.30067 13.2085 8.39696C12.3788 8.50433 11.7155 8.90574 11.2121 9.57262C11.1439 9.66298 11.0793 9.75593 11.0083 9.85465L11.008 9.85449ZM6.225 13.1907C6.225 11.6884 6.225 10.186 6.225 8.68385C6.225 8.61095 6.18906 8.5744 6.11717 8.5742C5.16872 8.5742 4.22027 8.5742 3.27197 8.5742C3.20058 8.5742 3.16479 8.6107 3.16459 8.6837C3.16459 11.6858 3.16459 14.6879 3.16459 17.69C3.16459 17.7601 3.19902 17.7953 3.26786 17.7955C4.21374 17.7955 5.15961 17.7955 6.10563 17.7955C6.18521 17.7955 6.22505 17.7554 6.22515 17.6751C6.22515 16.1803 6.22515 14.6856 6.22515 13.1909L6.225 13.1907ZM2.99297 5.73826C2.97581 6.40286 3.40653 7.01157 4.09011 7.22085C4.41254 7.31957 4.7415 7.33293 5.07243 7.27583C5.51636 7.19913 5.8883 6.99729 6.1518 6.62262C6.39358 6.27877 6.46694 5.89317 6.40588 5.4825C6.32828 4.96036 6.06204 4.56427 5.58728 4.32355C5.18467 4.11928 4.75593 4.08845 4.31655 4.16636C3.96603 4.22848 3.65651 4.37686 3.40911 4.63535C3.12085 4.93636 2.98766 5.30116 2.99312 5.73841L2.99297 5.73826Z" fill="#9F134E"/>
</svg>
