<svg width="28" height="29" viewBox="0 0 28 29" fill="none" xmlns="http://www.w3.org/2000/svg">
<path d="M27.4963 14.5726C27.4963 18.4916 27.4914 22.4109 27.5 26.3299C27.502 27.2618 26.8083 28.1205 25.8068 28.2894C25.7057 28.3065 25.6047 28.3104 25.5028 28.3104C17.668 28.3104 9.83321 28.3104 1.99842 28.3102C0.992991 28.3102 0.145458 27.5731 0.00814126 26.5784C-0.000619301 26.5149 0.000603103 26.4499 0.000603103 26.3855C0.000399369 18.503 -0.0018417 10.6208 0.00386284 2.73852C0.00447405 1.99734 0.378326 1.45072 1.00888 1.07911C1.32793 0.89106 1.67631 0.812012 2.04996 0.812012C9.86764 0.81466 17.6855 0.813845 25.5034 0.814049C26.4416 0.814049 27.2633 1.47598 27.4623 2.39054C27.4892 2.5138 27.4969 2.63828 27.4969 2.76439C27.4963 6.70053 27.4963 10.6365 27.4963 14.5726ZM14.7668 13.1687C14.731 13.1169 14.7428 13.0752 14.7426 13.0363C14.7416 12.5544 14.7422 12.0726 14.742 11.5908C14.742 11.4524 14.7416 11.452 14.6004 11.452C13.3517 11.452 12.1028 11.452 10.8541 11.452C10.7182 11.452 10.6511 11.5205 10.653 11.6574C10.653 11.6641 10.653 11.671 10.653 11.6778C10.6549 12.2411 10.6591 12.8044 10.6581 13.3675C10.6526 16.8013 10.6736 20.2352 10.6384 23.6689C10.6367 23.8209 10.6384 23.8211 10.7863 23.8211C12.0553 23.8211 13.3246 23.8211 14.5937 23.8211C14.6924 23.8211 14.7418 23.7702 14.742 23.6685C14.742 21.4323 14.742 19.1961 14.7424 16.9598C14.7424 16.7937 14.7438 16.6281 14.7593 16.4618C14.8239 15.7651 15.1651 15.2246 15.7089 14.8106C16.1669 14.4618 16.6964 14.3516 17.2666 14.4121C17.9547 14.4852 18.4528 14.8267 18.7541 15.4489C19.002 15.9606 19.0807 16.5117 19.0825 17.0712C19.0892 19.2666 19.0852 21.4623 19.0852 23.6577C19.0852 23.7665 19.1381 23.8209 19.2439 23.8209C20.4995 23.8209 21.7549 23.8209 23.0105 23.8209C23.1207 23.8209 23.1758 23.7649 23.1759 23.6528C23.1759 21.3622 23.1749 19.0719 23.177 16.7813C23.1774 16.3229 23.1586 15.8665 23.0924 15.4124C22.9808 14.6464 22.7668 13.9148 22.37 13.2451C21.9454 12.529 21.3658 11.9756 20.6103 11.6183C19.6899 11.1831 18.7168 11.0843 17.7187 11.2134C16.6057 11.3575 15.716 11.896 15.0406 12.7905C14.9492 12.9118 14.8626 13.0365 14.7672 13.1689L14.7668 13.1687ZM8.35064 17.6441C8.35064 15.6288 8.35064 13.6134 8.35064 11.5983C8.35064 11.5005 8.30242 11.4515 8.20599 11.4512C6.93367 11.4512 5.66135 11.4512 4.38924 11.4512C4.29348 11.4512 4.24547 11.5002 4.24519 11.5981C4.24519 15.6253 4.24519 19.6525 4.24519 23.6797C4.24519 23.7738 4.29137 23.821 4.38373 23.8213C5.65259 23.8213 6.92144 23.8213 8.1905 23.8213C8.29726 23.8213 8.35071 23.7675 8.35084 23.6597C8.35084 21.6546 8.35084 19.6495 8.35084 17.6443L8.35064 17.6441ZM4.01498 7.64688C3.99195 8.53842 4.56974 9.35498 5.48675 9.63573C5.91928 9.76815 6.36056 9.78608 6.8045 9.70948C7.40001 9.60659 7.89896 9.33583 8.25244 8.83322C8.57678 8.37197 8.67519 7.85469 8.59328 7.30379C8.48918 6.60335 8.13203 6.07201 7.49516 5.7491C6.95506 5.47507 6.37992 5.43372 5.79052 5.53823C5.3203 5.62156 4.90509 5.82061 4.57321 6.16736C4.18652 6.57116 4.00784 7.06053 4.01518 7.64708L4.01498 7.64688Z" fill="white"/>
</svg>
