<svg width="309" height="79" viewBox="0 0 309 79" fill="none" xmlns="http://www.w3.org/2000/svg">
<g clip-path="url(#clip0_5_11)">
<path d="M107.688 22.6653C106.586 21.7914 105.178 21.2263 103.462 20.9551C103.087 20.8873 102.668 20.8421 102.196 20.827C101.724 20.8044 101.349 20.7969 101.064 20.7969H88.9119V49.7276H94.3438V39.9183H101.057C101.327 39.9183 101.694 39.9032 102.173 39.8806C102.653 39.8505 103.08 39.8128 103.455 39.7601C105.163 39.4888 106.564 38.9238 107.658 38.0498C108.759 37.1759 109.568 36.0835 110.093 34.765C110.617 33.4465 110.879 31.9774 110.879 30.3576C110.879 28.7378 110.617 27.2686 110.1 25.9502C109.583 24.6317 108.774 23.5393 107.673 22.6653H107.688ZM105.193 32.0151C105.043 32.5952 104.766 33.1301 104.361 33.6048C103.964 34.0794 103.395 34.4184 102.66 34.6219C102.383 34.7047 102.076 34.7575 101.739 34.7801C101.409 34.8102 101.102 34.8177 100.817 34.8177H94.3438V25.8974H100.817C101.094 25.8974 101.402 25.9125 101.739 25.9351C102.068 25.9652 102.376 26.018 102.66 26.0933C103.395 26.2967 103.957 26.6358 104.361 27.1104C104.758 27.5851 105.035 28.1124 105.193 28.7001C105.343 29.2802 105.425 29.8377 105.425 30.3576C105.425 30.8774 105.35 31.435 105.193 32.0151Z" fill="#1E1E1C"/>
<path d="M124.605 27.9768C123.954 28.022 123.317 28.135 122.71 28.3159C122.096 28.4967 121.534 28.7453 121.009 29.0693C120.327 29.4686 119.758 29.9809 119.293 30.5987C119.069 30.8925 118.874 31.2014 118.694 31.5254V28.0296H113.899V49.7276H119.376V38.6375C119.376 37.8088 119.488 37.0629 119.713 36.3999C119.938 35.7369 120.275 35.1643 120.709 34.6746C121.151 34.1849 121.691 33.7931 122.328 33.4993C122.965 33.1904 123.684 33.0096 124.478 32.9493C125.272 32.889 125.969 32.9493 126.568 33.1377V28.0371C125.917 27.9542 125.265 27.9392 124.613 27.9844L124.605 27.9768Z" fill="#1E1E1C"/>
<path d="M144.393 28.896C142.744 27.9166 140.841 27.4268 138.669 27.4268C136.496 27.4268 134.653 27.909 133.012 28.8734C131.371 29.8377 130.09 31.1788 129.153 32.9041C128.224 34.6219 127.752 36.6184 127.752 38.8786C127.752 41.1388 128.209 43.0977 129.123 44.8154C130.037 46.5332 131.311 47.8893 132.952 48.8612C134.593 49.8406 136.496 50.3304 138.669 50.3304C140.841 50.3304 142.729 49.8482 144.37 48.8763C146.019 47.9044 147.3 46.5558 148.229 44.838C149.158 43.1203 149.615 41.1313 149.615 38.8786C149.615 36.6259 149.158 34.6595 148.236 32.9418C147.315 31.224 146.034 29.8679 144.393 28.896ZM142.572 43.4518C141.711 44.6346 140.407 45.2298 138.669 45.2298C136.93 45.2298 135.694 44.6572 134.825 43.512C133.956 42.3669 133.514 40.8224 133.514 38.8786C133.514 37.6204 133.694 36.5129 134.061 35.5636C134.428 34.6143 134.99 33.8685 135.747 33.3335C136.503 32.7986 137.477 32.5274 138.661 32.5274C140.377 32.5274 141.673 33.1 142.55 34.2527C143.419 35.4054 143.861 36.9424 143.861 38.8711C143.861 40.7998 143.434 42.2539 142.572 43.4442V43.4518Z" fill="#1E1E1C"/>
<path d="M167.035 38.2457C166.038 37.6732 164.727 37.1759 163.086 36.7465C161.408 36.317 160.157 35.9705 159.34 35.6992C158.523 35.428 157.984 35.1718 157.722 34.9157C157.459 34.6595 157.332 34.3431 157.332 33.9739C157.332 33.3411 157.632 32.8589 158.239 32.5274C158.846 32.1959 159.647 32.0603 160.644 32.1281C161.67 32.211 162.479 32.4822 163.079 32.9493C163.678 33.4164 164.023 34.0568 164.12 34.8554L169.672 33.8534C169.485 32.5425 168.99 31.4048 168.181 30.4405C167.372 29.4761 166.323 28.7302 165.012 28.2104C163.708 27.6905 162.21 27.4268 160.516 27.4268C158.823 27.4268 157.257 27.7056 155.968 28.2631C154.68 28.8206 153.683 29.6117 152.979 30.6364C152.275 31.661 151.923 32.8664 151.923 34.2602C151.923 35.3753 152.155 36.317 152.619 37.1006C153.084 37.8841 153.848 38.5546 154.897 39.1197C155.946 39.6847 157.355 40.1895 159.115 40.6491C160.674 41.0635 161.82 41.4025 162.562 41.6511C163.304 41.9073 163.776 42.1634 163.993 42.4271C164.203 42.6908 164.315 43.0299 164.315 43.4593C164.315 44.1449 164.045 44.6723 163.513 45.0565C162.981 45.4408 162.225 45.6291 161.236 45.6291C160.037 45.6291 159.048 45.3428 158.269 44.7627C157.489 44.1901 156.987 43.3915 156.763 42.3744L151.211 43.2182C151.57 45.4784 152.589 47.2339 154.26 48.4694C155.931 49.705 158.126 50.3304 160.846 50.3304C163.566 50.3304 165.881 49.6975 167.477 48.4242C169.073 47.151 169.874 45.4031 169.874 43.1805C169.874 42.058 169.65 41.0936 169.193 40.295C168.743 39.4964 168.016 38.8183 167.027 38.2457H167.035Z" fill="#1E1E1C"/>
<path d="M188.987 28.9111C187.459 27.9166 185.653 27.4268 183.593 27.4268C181.532 27.4268 179.817 27.9316 178.416 28.9337C178.288 29.0241 178.161 29.1295 178.033 29.2275V28.0296H173.238V59.3787H178.715V48.9667C180.116 49.8783 181.832 50.3379 183.87 50.3379C185.908 50.3379 187.594 49.8331 189.085 48.8311C190.576 47.8291 191.737 46.4579 192.569 44.7326C193.4 43.0073 193.82 41.0559 193.82 38.8861C193.82 36.7163 193.4 34.7123 192.554 32.987C191.707 31.2692 190.516 29.9056 188.987 28.9186V28.9111ZM187.526 42.2011C187.167 43.1956 186.612 43.9942 185.871 44.5819C185.121 45.1695 184.162 45.4634 182.993 45.4634C181.825 45.4634 180.813 45.1921 180.086 44.6421C179.36 44.0922 178.835 43.3237 178.521 42.3292C178.198 41.3347 178.041 40.1895 178.041 38.8711C178.041 37.5526 178.198 36.4074 178.521 35.4129C178.843 34.4184 179.352 33.65 180.049 33.1C180.746 32.55 181.667 32.2788 182.799 32.2788C184.012 32.2788 185.009 32.5801 185.788 33.1753C186.567 33.7705 187.144 34.5691 187.519 35.5636C187.893 36.5581 188.081 37.6656 188.081 38.8711C188.081 40.0765 187.901 41.1991 187.541 42.1936L187.526 42.2011Z" fill="#1E1E1C"/>
<path d="M212.708 29.0316C211.12 27.9618 209.194 27.4268 206.932 27.4268C204.796 27.4268 202.916 27.909 201.275 28.8809C199.634 29.8528 198.353 31.2165 197.416 32.9719C196.487 34.7273 196.015 36.7917 196.015 39.1574C196.015 41.3272 196.495 43.2559 197.446 44.936C198.398 46.6161 199.716 47.9345 201.402 48.8913C203.088 49.8482 205.036 50.3304 207.246 50.3304C209.322 50.3304 211.24 49.7804 212.993 48.6804C214.746 47.5804 216.027 46.0435 216.836 44.062L211.404 42.4949C211.007 43.3764 210.423 44.0545 209.666 44.5216C208.91 44.9887 207.995 45.2223 206.932 45.2223C205.238 45.2223 203.957 44.6723 203.088 43.5648C202.451 42.7586 202.047 41.6963 201.874 40.4005H217.024C217.249 37.7786 216.986 35.4883 216.222 33.552C215.465 31.6082 214.289 30.1014 212.708 29.0316ZM207.171 32.1658C208.76 32.1658 209.899 32.6479 210.595 33.6198C211.052 34.2602 211.36 35.1718 211.517 36.3396H202.017C202.234 35.3376 202.578 34.5089 203.08 33.8609C203.95 32.7308 205.313 32.1658 207.164 32.1658H207.171Z" fill="#1E1E1C"/>
<path d="M227.213 33.3637C227.948 32.8062 228.884 32.5274 230.03 32.5274C231.027 32.5274 231.926 32.8438 232.72 33.4692C233.514 34.102 234.069 34.976 234.391 36.0985L239.823 34.652C239.343 32.4144 238.242 30.6514 236.519 29.3556C234.796 28.0597 232.66 27.4193 230.113 27.4193C227.918 27.4193 226.007 27.9166 224.396 28.9035C222.785 29.898 221.534 31.2541 220.65 32.9794C219.766 34.7047 219.324 36.6711 219.324 38.8635C219.324 41.0559 219.751 42.9847 220.605 44.71C221.459 46.4352 222.68 47.8064 224.284 48.8085C225.88 49.8105 227.798 50.3153 230.038 50.3153C232.54 50.3153 234.646 49.69 236.354 48.4468C238.062 47.2037 239.216 45.4257 239.831 43.1203L234.279 41.9525C233.956 42.9997 233.477 43.7983 232.84 44.3634C232.203 44.9284 231.267 45.2072 230.045 45.2072C228.405 45.2072 227.168 44.6195 226.337 43.4518C225.505 42.2765 225.086 40.747 225.086 38.8635C225.086 37.6581 225.258 36.5732 225.602 35.6164C225.947 34.6595 226.487 33.8986 227.221 33.3486L227.213 33.3637Z" fill="#1E1E1C"/>
<path d="M249.533 22.0023H244.101V28.0296H240.422V32.2486H244.101V40.5285C244.101 41.8319 244.116 42.9922 244.139 44.0168C244.169 45.0414 244.446 46.051 244.978 47.038C245.562 48.0927 246.416 48.8612 247.548 49.3358C248.671 49.8105 249.953 50.0666 251.384 50.0968C252.815 50.1269 254.276 50.0064 255.767 49.7276V45.1846C254.486 45.3579 253.324 45.4106 252.268 45.3428C251.211 45.275 250.447 44.8606 249.968 44.0997C249.713 43.7004 249.578 43.1579 249.556 42.4799C249.533 41.8018 249.526 41.0409 249.526 40.197V32.2411H255.759V28.022H249.526V21.9948L249.533 22.0023Z" fill="#1E1E1C"/>
<path d="M265.394 20.1942H259.962V25.0159H265.394V20.1942Z" fill="#1E1E1C"/>
<path d="M265.394 28.0296H259.962V49.7276H265.394V28.0296Z" fill="#1E1E1C"/>
<path d="M278.948 43.06L273.831 28.0296H268.391L276.228 49.7276H281.66L289.497 28.0296H284.058L278.948 43.06Z" fill="#1E1E1C"/>
<path d="M308.88 33.778C308.798 32.9719 308.55 32.1733 308.123 31.3671C307.367 29.9206 306.243 28.9035 304.767 28.3158C303.291 27.7282 301.598 27.4344 299.694 27.4344C297.095 27.4344 295.042 27.9994 293.536 29.122C292.03 30.2446 291.003 31.7062 290.456 33.4993L295.371 35.0663C295.716 34.0719 296.323 33.3863 297.192 32.9945C298.061 32.6027 298.893 32.4144 299.687 32.4144C301.125 32.4144 302.152 32.7157 302.766 33.3184C303.246 33.7931 303.538 34.4787 303.643 35.3677C302.729 35.5033 301.852 35.6389 301.028 35.7595C299.627 35.9704 298.376 36.1814 297.274 36.4149C296.166 36.641 295.214 36.9047 294.42 37.1985C293.259 37.6279 292.337 38.1628 291.655 38.7957C290.966 39.4286 290.471 40.1669 290.164 40.9956C289.857 41.8244 289.707 42.7435 289.707 43.7456C289.707 44.951 289.984 46.051 290.539 47.053C291.093 48.0475 291.902 48.8461 292.974 49.4413C294.045 50.0365 295.356 50.3379 296.9 50.3379C298.765 50.3379 300.309 50.0139 301.523 49.366C302.482 48.8537 303.396 48.0852 304.25 47.0681V49.7351H309.007V36.4752C309.007 35.4807 308.97 34.5842 308.888 33.7856L308.88 33.778ZM303.044 43.1428C302.894 43.4517 302.624 43.836 302.212 44.288C301.807 44.7401 301.26 45.1469 300.571 45.501C299.882 45.8551 299.043 46.0359 298.046 46.0359C297.417 46.0359 296.877 45.9455 296.428 45.7572C295.978 45.5688 295.626 45.2976 295.379 44.9435C295.132 44.5894 295.012 44.1599 295.012 43.6702C295.012 43.3086 295.087 42.9771 295.244 42.6833C295.394 42.3894 295.634 42.1182 295.963 41.8696C296.293 41.621 296.72 41.3874 297.252 41.1765C297.716 41.0032 298.256 40.845 298.87 40.6943C299.485 40.5436 300.286 40.3854 301.29 40.2046C301.927 40.0916 302.706 39.9559 303.598 39.8053C303.59 40.1895 303.568 40.6114 303.538 41.0936C303.493 41.8771 303.328 42.5627 303.051 43.1504L303.044 43.1428Z" fill="#1E1E1C"/>
<path d="M88.9193 78.1988V68.9846H92.5382C92.6281 68.9846 92.733 68.9847 92.8528 68.9922C92.9727 68.9997 93.0926 69.0148 93.2125 69.0374C93.707 69.1127 94.1265 69.286 94.4637 69.5497C94.8008 69.8134 95.0556 70.1449 95.2204 70.5517C95.3927 70.951 95.4752 71.4031 95.4752 71.8928C95.4752 72.3825 95.3927 72.827 95.2204 73.2263C95.0481 73.6256 94.7934 73.9647 94.4562 74.2283C94.119 74.492 93.707 74.6653 93.2125 74.7407C93.1001 74.7557 92.9802 74.7708 92.8528 74.7783C92.7255 74.7859 92.6206 74.7934 92.5382 74.7934H90.0507V78.1988H88.9193ZM90.0507 73.716H92.5007C92.5831 73.716 92.673 73.716 92.7779 73.701C92.8828 73.6859 92.9802 73.6784 93.0701 73.6558C93.3623 73.588 93.6021 73.4599 93.7894 73.2791C93.9767 73.0982 94.1115 72.8873 94.194 72.6387C94.2764 72.39 94.3213 72.1414 94.3213 71.8853C94.3213 71.6291 94.2764 71.3805 94.194 71.1319C94.1115 70.8832 93.9767 70.6723 93.7894 70.4915C93.6021 70.3106 93.3698 70.1826 93.0701 70.1223C92.9802 70.0997 92.8753 70.0771 92.7779 70.0771C92.673 70.0771 92.5831 70.0696 92.5007 70.0696H90.0507V73.716Z" fill="#1E1E1C"/>
<path d="M102.9 78.3871C102.188 78.3871 101.566 78.2365 101.027 77.9426C100.488 77.6488 100.06 77.2344 99.7533 76.7071C99.4461 76.1797 99.2888 75.5543 99.2888 74.8386V68.9922H100.435V74.7407C100.435 75.1776 100.51 75.5543 100.652 75.8783C100.795 76.2023 100.99 76.466 101.237 76.6844C101.477 76.8954 101.746 77.0536 102.038 77.1591C102.331 77.2646 102.615 77.3173 102.908 77.3173C103.2 77.3173 103.492 77.2646 103.784 77.1591C104.076 77.0536 104.346 76.8954 104.586 76.6844C104.826 76.4735 105.02 76.2023 105.163 75.8783C105.305 75.5543 105.38 75.1776 105.38 74.7482V68.9922H106.526V74.8461C106.526 75.5619 106.369 76.1797 106.062 76.7146C105.755 77.2495 105.328 77.6639 104.788 77.9577C104.249 78.2515 103.619 78.4022 102.915 78.4022L102.9 78.3871Z" fill="#1E1E1C"/>
<path d="M110.842 78.1988V68.9846H114.408C114.955 68.9846 115.42 69.0977 115.809 69.3237C116.199 69.5497 116.491 69.8435 116.701 70.2127C116.911 70.5819 117.008 70.9812 117.008 71.4031C117.008 71.9003 116.881 72.3373 116.626 72.714C116.371 73.0907 116.027 73.3469 115.592 73.49L115.577 73.1736C116.169 73.3318 116.626 73.6181 116.948 74.04C117.27 74.4619 117.435 74.9667 117.435 75.5468C117.435 76.0817 117.323 76.5488 117.106 76.9406C116.888 77.3324 116.574 77.6413 116.162 77.8522C115.749 78.0707 115.27 78.1762 114.708 78.1762H110.82L110.842 78.1988ZM111.988 72.8345H114.401C114.671 72.8345 114.918 72.7743 115.135 72.6613C115.352 72.5407 115.525 72.3825 115.66 72.164C115.787 71.9531 115.854 71.7044 115.854 71.4181C115.854 71.0188 115.72 70.6949 115.457 70.4463C115.195 70.1976 114.843 70.0696 114.408 70.0696H111.996V72.8421L111.988 72.8345ZM111.988 77.1139H114.513C114.85 77.1139 115.158 77.0536 115.42 76.9255C115.69 76.7975 115.899 76.6242 116.049 76.3906C116.199 76.1571 116.281 75.8858 116.281 75.5619C116.281 75.2379 116.214 74.9742 116.072 74.7256C115.937 74.477 115.742 74.2811 115.495 74.1304C115.247 73.9797 114.963 73.9119 114.633 73.9119H111.981V77.1139H111.988Z" fill="#1E1E1C"/>
<path d="M121.391 78.1988V68.9846H122.523V77.1139H126.771V78.1913H121.391V78.1988Z" fill="#1E1E1C"/>
<path d="M130.524 78.1988V68.9846H131.656V78.1988H130.524Z" fill="#1E1E1C"/>
<path d="M139.875 78.3871C138.961 78.3871 138.189 78.1837 137.552 77.7769C136.915 77.37 136.428 76.8125 136.099 76.0892C135.769 75.366 135.597 74.5372 135.597 73.5879C135.597 72.6387 135.762 71.8099 136.099 71.0866C136.428 70.3634 136.915 69.8059 137.552 69.399C138.189 68.9922 138.961 68.7888 139.875 68.7888C140.931 68.7888 141.808 69.06 142.49 69.6024C143.172 70.1449 143.644 70.8757 143.906 71.7873L142.752 72.0962C142.565 71.4106 142.235 70.8682 141.755 70.4688C141.276 70.0695 140.647 69.8737 139.875 69.8737C139.193 69.8737 138.624 70.0319 138.167 70.3408C137.71 70.6497 137.372 71.0866 137.14 71.6442C136.908 72.2017 136.796 72.8496 136.788 73.5879C136.788 74.3187 136.893 74.9667 137.125 75.5242C137.357 76.0817 137.695 76.5187 138.159 76.8276C138.616 77.144 139.186 77.2947 139.867 77.2947C140.647 77.2947 141.268 77.0988 141.748 76.6995C142.227 76.3002 142.557 75.7578 142.744 75.0797L143.898 75.3886C143.636 76.3002 143.172 77.031 142.482 77.5735C141.793 78.1159 140.924 78.3871 139.867 78.3871H139.875Z" fill="#1E1E1C"/>
<path d="M152.305 78.1988L155.369 68.9846H156.95L160.014 78.1988H158.838L155.968 69.6552H156.328L153.481 78.1988H152.305ZM153.781 76.0441V74.9742H158.538V76.0441H153.781Z" fill="#1E1E1C"/>
<path d="M163.701 78.1988V68.9846H169.043V70.1223H164.832V73.0229H168.278V74.1605H164.832V78.1988H163.701Z" fill="#1E1E1C"/>
<path d="M172.736 78.1988V68.9846H178.078V70.1223H173.868V73.0229H177.314V74.1605H173.868V78.1988H172.736Z" fill="#1E1E1C"/>
<path d="M181 78.1988L184.065 68.9846H185.646L188.71 78.1988H187.534L184.664 69.6552H185.024L182.177 78.1988H181ZM182.476 76.0441V74.9742H187.234V76.0441H182.476Z" fill="#1E1E1C"/>
<path d="M192.531 78.1988V68.9846H193.663V78.1988H192.531Z" fill="#1E1E1C"/>
<path d="M198.113 78.1988V68.9846H201.732C201.822 68.9846 201.927 68.9847 202.047 68.9922C202.166 68.9997 202.286 69.0148 202.406 69.0374C202.901 69.1127 203.32 69.286 203.657 69.5497C203.995 69.8134 204.249 70.1449 204.414 70.5517C204.586 70.951 204.669 71.4031 204.669 71.8928C204.669 72.6085 204.482 73.2263 204.114 73.7462C203.747 74.266 203.208 74.5975 202.489 74.7256L202.054 74.7934H199.237V78.1988H198.106H198.113ZM199.244 73.716H201.694C201.777 73.716 201.867 73.716 201.972 73.701C202.076 73.6859 202.174 73.6784 202.264 73.6558C202.556 73.588 202.796 73.4599 202.983 73.2791C203.17 73.0982 203.305 72.8873 203.388 72.6387C203.47 72.39 203.515 72.1414 203.515 71.8853C203.515 71.6291 203.47 71.3805 203.388 71.1319C203.305 70.8832 203.17 70.6723 202.983 70.4915C202.796 70.3106 202.563 70.1826 202.264 70.1223C202.174 70.0997 202.069 70.0771 201.972 70.0771C201.867 70.0771 201.777 70.0696 201.694 70.0696H199.244V73.716ZM203.56 78.1988L201.754 74.4468L202.871 74.1003L204.856 78.1913H203.56V78.1988Z" fill="#1E1E1C"/>
<path d="M212.056 78.3871C211.404 78.3871 210.82 78.2741 210.303 78.0556C209.786 77.8371 209.352 77.5207 209.014 77.1063C208.677 76.692 208.46 76.2098 208.355 75.6447L209.524 75.4564C209.674 76.0365 209.981 76.4885 210.453 76.8125C210.925 77.1365 211.472 77.3022 212.109 77.3022C212.521 77.3022 212.895 77.2344 213.225 77.1063C213.555 76.9783 213.825 76.7899 214.019 76.5488C214.214 76.3077 214.312 76.0214 214.312 75.6824C214.312 75.479 214.274 75.3057 214.207 75.155C214.139 75.0043 214.042 74.8838 213.922 74.7783C213.802 74.6728 213.667 74.5824 213.51 74.5146C213.36 74.4393 213.195 74.379 213.03 74.3338L210.693 73.6331C210.438 73.5578 210.191 73.4599 209.958 73.3393C209.719 73.2188 209.509 73.0756 209.322 72.8948C209.134 72.7215 208.984 72.503 208.88 72.2544C208.775 72.0058 208.715 71.712 208.715 71.3654C208.715 70.8229 208.857 70.3558 209.134 69.9716C209.412 69.5874 209.801 69.2935 210.281 69.0826C210.76 68.8792 211.307 68.7812 211.914 68.7812C212.528 68.7812 213.075 68.8942 213.562 69.1127C214.049 69.3312 214.454 69.6326 214.769 70.0394C215.091 70.4387 215.301 70.9209 215.413 71.4784L214.214 71.6894C214.147 71.3127 214.012 70.9887 213.795 70.7175C213.577 70.4462 213.3 70.2353 212.978 70.0921C212.656 69.949 212.296 69.8661 211.899 69.8661C211.524 69.8661 211.187 69.9189 210.888 70.0469C210.588 70.1675 210.348 70.3408 210.168 70.5593C209.988 70.7777 209.899 71.0339 209.899 71.3202C209.899 71.6065 209.981 71.8325 210.138 71.9983C210.296 72.1715 210.498 72.3072 210.73 72.4051C210.962 72.503 211.195 72.5859 211.419 72.6537L213.165 73.1585C213.367 73.2112 213.592 73.2941 213.854 73.3921C214.117 73.49 214.371 73.6256 214.611 73.8064C214.858 73.9872 215.061 74.2208 215.218 74.5071C215.375 74.7934 215.458 75.1701 215.458 75.6071C215.458 76.044 215.368 76.4433 215.196 76.7899C215.023 77.1365 214.776 77.4228 214.461 77.6563C214.147 77.8899 213.78 78.0632 213.367 78.1837C212.955 78.3043 212.506 78.3645 212.034 78.3645L212.056 78.3871Z" fill="#1E1E1C"/>
<path d="M224.584 78.1988V68.9846H225.715V77.1139H229.963V78.1913H224.584V78.1988Z" fill="#1E1E1C"/>
<path d="M232.953 78.1988L236.017 68.9846H237.598L240.662 78.1988H239.486L236.616 69.6552H236.976L234.129 78.1988H232.953ZM234.429 76.0441V74.9742H239.186V76.0441H234.429Z" fill="#1E1E1C"/>
<path d="M245.944 78.1988V70.0696H242.82V68.9922H250.2V70.0696H247.076V78.1988H245.944Z" fill="#1E1E1C"/>
<path d="M252.695 78.1988V76.9481H253.939V78.1988H252.695Z" fill="#1E1E1C"/>
<path d="M257.835 78.1988L260.899 68.9846H262.48L265.544 78.1988H264.368L261.498 69.6552H261.858L259.011 78.1988H257.835ZM259.311 76.0441V74.9742H264.068V76.0441H259.311Z" fill="#1E1E1C"/>
<path d="M269.238 78.1988V68.9846H270.272L273.733 76.3228L277.172 68.9846H278.214V78.1913H277.135V71.486L274.026 78.1988H273.419L270.309 71.486V78.1988H269.238Z" fill="#1E1E1C"/>
<path d="M56.5523 12.63L48.9776 17.3915L48.9926 8.08692L37.0422 0.891907V36.8896L66.8768 18.8455L56.5523 12.63Z" fill="#9E144F"/>
<path d="M20.8662 8.08692L20.8887 17.3915L13.3139 12.63L2.98196 18.8455L32.8166 36.8896V0.891907L20.8662 8.08692Z" fill="#9E144F"/>
<path d="M2.98196 60.9383L13.3139 67.1539L20.8887 62.3923L20.8662 71.6969L32.8166 78.8919V42.8942L2.98196 60.9383Z" fill="#9E144F"/>
<path d="M48.9776 62.3923L56.5523 67.1539L66.8768 60.9383L37.0422 42.8867V78.8919L48.9926 71.6969L48.9776 62.3923Z" fill="#9E144F"/>
<path d="M69.8588 21.8893L40.0242 39.8882L69.8588 57.887V45.8928L59.4219 39.8882L69.8588 33.8911V21.8893Z" fill="#9E144F"/>
<path d="M0 33.8911L10.4369 39.8957L0 45.8928V57.887L29.8346 39.8957L0 21.8893V33.8911Z" fill="#9E144F"/>
</g>
<defs>
<clipPath id="clip0_5_11">
<rect width="309" height="78" fill="white" transform="translate(0 0.891907)"/>
</clipPath>
</defs>
</svg>
