<svg width="268" height="146" viewBox="0 0 268 146" fill="none" xmlns="http://www.w3.org/2000/svg">
<path d="M143.854 39.1723L125.058 50.0271L107.233 39.7364L161.678 8.30029V71.1654L143.854 60.8748V39.1723ZM125.058 50.0271V71.7296L143.854 60.8748L125.058 50.0199V50.0271ZM2.29826 100.938C1.75552 100.938 1.58413 100.938 1.58413 101.188C1.58413 101.359 1.80551 101.53 1.9769 101.58C2.29826 101.652 2.61962 101.752 3.04096 101.88C4.10501 102.18 4.155 103.116 4.155 103.316C4.10501 105.172 3.56227 112.292 3.31233 113.999C3.11237 115.406 2.96954 115.827 1.43416 116.277C1.1128 116.349 0.941406 116.52 0.941406 116.62C0.941406 116.891 1.21278 116.963 1.58413 116.963C2.20542 116.963 2.96954 116.891 3.56227 116.891C4.20499 116.891 5.24049 116.963 6.03317 116.963C6.43309 116.963 6.70446 116.863 6.70446 116.663C6.70446 116.441 6.58306 116.341 6.03317 116.191C4.76916 115.799 4.57634 115.449 4.52635 114.192C4.45494 111.914 4.72631 105.687 4.91913 104.644C4.94055 104.373 5.0191 104.401 5.09052 104.573C6.00461 106.672 8.03275 110.578 9.36817 113.849C9.8395 115.035 10.1109 115.849 10.2823 116.47C10.3537 116.741 10.5036 116.941 10.6536 116.941C10.825 116.941 10.9464 116.97 11.2249 116.249C11.5963 115.285 12.1604 113.999 12.7603 112.714C13.7244 110.686 16.4952 105.244 16.7666 104.772C16.9166 104.53 17.0165 104.673 17.0165 104.851C17.0879 106.115 17.1379 113.285 17.0451 114.399C16.9737 115.313 16.9237 115.884 15.9096 116.177C15.5668 116.277 15.2669 116.399 15.2669 116.62C15.2669 116.87 15.6597 116.963 15.9311 116.963C16.5238 116.963 17.3379 116.891 17.8092 116.891C18.7233 116.891 20.6301 117.013 20.9014 117.013C21.2728 117.013 21.6156 116.891 21.6156 116.691C21.6156 116.52 21.3942 116.32 20.9514 116.22C19.7659 115.877 19.4946 115.627 19.3446 114.513C19.2732 113.821 18.9947 110.678 18.9947 103.808C18.9947 102.523 19.3875 102.052 19.7588 101.902C20.1302 101.752 20.4801 101.652 20.8729 101.58C21.3156 101.509 21.5156 101.359 21.5156 101.188C21.5156 100.966 21.1942 100.916 20.8729 100.916C20.6515 100.916 18.6448 100.988 17.7592 100.988C17.7092 100.988 17.5093 101.209 17.4879 101.338C17.3379 101.83 16.9451 102.673 16.9166 102.773C16.5238 103.808 11.8962 112.542 11.6748 112.964C11.6248 113.035 11.4749 112.964 11.4249 112.885C11.0821 112.414 8.21128 106.479 6.82586 103.566C6.33311 102.502 6.18314 102.23 5.88321 101.316C5.86178 101.195 5.66182 100.995 5.61184 100.995C4.17643 100.995 3.90506 100.945 2.29826 100.945M37.5693 109.207C37.5978 109.279 37.5193 109.407 37.4979 109.407C36.6838 109.479 34.6271 109.457 33.6415 109.479C33.5416 109.479 33.4916 109.407 33.5201 109.307C33.7201 108.543 35.0055 105.08 35.4483 103.894C35.5197 103.723 35.5697 103.744 35.6483 103.894C35.8696 104.237 37.1551 107.95 37.5764 109.214M36.7837 101.202C36.5838 100.659 36.4838 100.559 36.391 100.559C36.2696 100.559 36.1696 100.681 35.9982 100.88C35.8268 101.152 35.5554 101.623 35.4055 101.873C35.3055 102.073 35.2555 102.216 35.2341 102.294C35.1841 102.444 35.1627 102.594 35.0127 102.937C33.9701 105.458 31.1564 112.928 30.5851 114.192C29.8638 115.799 29.5424 115.87 28.307 116.291C27.9356 116.413 27.7642 116.634 27.7642 116.784C27.7642 116.934 27.8856 117.034 28.3355 117.034C28.7069 117.034 29.9923 116.913 30.9064 116.913C31.8205 116.913 32.4418 116.984 32.856 116.984C33.1774 116.984 33.5487 116.913 33.5487 116.663C33.5487 116.491 33.2988 116.341 32.8846 116.22C31.7705 115.87 31.6705 115.456 31.6705 115.156C31.6705 114.542 32.3133 112.435 32.956 110.828C33.006 110.75 33.1274 110.628 33.2274 110.628C33.7487 110.557 35.9268 110.528 37.2836 110.528C37.9978 110.528 38.0977 110.678 38.1263 110.778C38.6976 112.364 39.3118 113.992 39.5117 115.006C39.6117 115.527 39.7117 116.02 38.5191 116.27C38.0763 116.341 37.9263 116.541 37.9263 116.663C37.9263 116.784 38.0763 116.963 38.6905 116.963C39.3046 116.963 39.6545 116.913 40.4472 116.913C41.5327 116.913 42.7467 117.034 43.5609 117.034C44.175 117.034 44.3535 116.884 44.3535 116.713C44.3535 116.541 44.1536 116.42 43.7608 116.291C42.6468 116.02 42.254 115.82 41.4327 113.792C41.0114 112.778 39.1618 107.879 37.8692 104.273C37.3979 102.987 36.9766 101.873 36.7837 101.209M62.6996 100.959C61.757 100.738 60.6501 100.566 59.7788 100.566C57.5007 100.566 55.2012 101.109 53.0731 102.844C52.0376 103.708 50.3523 105.958 50.3523 108.779C50.3523 111.6 51.4877 113.378 52.4304 114.463C53.4159 115.627 55.9653 117.356 59.4503 117.356C61.5499 117.356 63.5566 116.834 63.9493 116.663C64.1993 116.541 64.6135 116.241 64.7135 116.02C65.0634 115.449 65.6276 114.142 65.699 113.521C65.749 113.249 65.7275 112.707 65.4776 112.707C65.3776 112.707 65.2776 112.828 64.9563 113.349C64.3635 114.385 63.7422 115.177 62.6568 115.749C61.6427 116.341 60.4287 116.42 59.9573 116.42C57.9578 116.42 55.087 115.306 53.7015 112.464C53.1588 111.378 52.8374 110.043 52.8374 108.386C52.8374 104.651 55.3869 101.366 59.3646 101.366C60.7 101.366 61.9641 101.637 63.3209 102.652C63.6423 102.901 64.1136 103.644 64.335 104.508C64.4564 104.88 64.6063 105.151 64.7278 105.151C64.9277 105.151 65.1205 104.851 65.0991 104.337C65.0491 103.794 64.9277 102.702 64.9277 102.187C64.9277 101.616 64.6778 101.445 64.5564 101.445C64.185 101.395 63.3209 101.073 62.6782 100.973M81.2028 102.609C81.9169 103.323 82.3168 104.487 82.3168 105.08C82.3168 106.636 81.3528 107.729 80.6815 108.143C80.3387 108.365 79.0247 108.786 77.5893 108.786C77.4393 108.786 77.2465 108.615 77.1965 108.415C77.1251 107.993 77.1965 103.223 77.2679 102.352C77.2679 102.252 77.4393 101.88 77.5679 101.83C77.8392 101.709 78.6319 101.659 78.7533 101.659C79.546 101.659 80.6101 102.03 81.2028 102.602M82.5168 108.486C83.7308 107.743 84.5235 106.358 84.5235 105.022C84.5235 103.837 83.9308 102.602 83.1095 101.93C82.1169 101.116 80.7886 100.888 79.0818 100.888C77.7464 100.888 75.9896 101.009 75.0755 101.009H73.6901C73.1474 101.009 73.026 101.13 73.026 101.309C73.026 101.509 73.2474 101.63 73.6187 101.73C74.7327 102.002 74.9541 102.052 75.0541 102.966C75.1541 103.93 75.2041 106.179 75.2041 109.993C75.2041 111.478 75.1041 114.099 75.0541 114.863C74.9827 115.799 74.5328 115.949 73.4473 116.299C73.126 116.42 72.9046 116.47 72.9046 116.67C72.9046 116.92 73.2259 117.013 73.5473 117.013C73.8187 117.013 75.1041 116.913 75.554 116.913C77.2394 116.913 77.7035 117.063 78.7462 117.063C78.8676 117.063 79.3389 116.991 79.3389 116.741C79.3389 116.62 79.1675 116.449 78.7462 116.32C77.5821 116.049 77.3108 115.706 77.2608 114.663C77.1894 113.228 77.1394 110.086 77.1608 109.671C77.1608 109.6 77.2822 109.372 77.4536 109.372C78.1963 109.372 79.1104 109.593 79.2104 109.693C79.3603 109.793 79.8531 110.414 80.1959 110.928C81.1885 112.485 82.4454 114.392 83.3095 115.577C84.0308 116.491 85.4376 117.184 86.6016 117.184C87.123 117.184 87.6657 117.134 87.9585 117.013C88.1085 116.941 88.3084 116.841 88.3084 116.691C88.3084 116.591 88.1085 116.399 87.9156 116.349C86.8302 116.127 86.1589 115.684 85.4947 114.892C83.9879 113.214 81.9098 109.871 81.6598 109.279C81.6099 109.179 81.6813 108.957 81.7598 108.907C81.9312 108.786 82.4025 108.565 82.5239 108.486M97.9849 102.794C98.849 101.93 100.363 101.388 101.398 101.388C102.534 101.388 104.091 101.909 105.105 102.723C106.933 104.208 108.097 106.801 108.097 109.5C108.097 112.442 106.983 114.449 105.997 115.335C105.726 115.634 104.783 116.52 102.734 116.52C98.7776 116.52 96.0568 112.292 96.0568 108.607C96.0568 105.715 96.8994 103.858 97.9849 102.794ZM110.525 108.757C110.525 104.058 106.69 100.573 101.941 100.573C100.213 100.573 98.0849 101.316 96.8709 102.302C94.9927 103.808 93.6573 105.915 93.6573 108.957C93.6573 111.085 94.4 113.085 95.714 114.549C97.2208 116.277 99.6203 117.37 102.141 117.37C103.398 117.37 105.455 117.027 107.012 115.934C108.818 114.649 110.525 112.228 110.525 108.764M123.187 101.545C125.515 101.545 127.214 103.501 127.214 105.751C127.214 108.593 125.386 109.757 124.072 109.757H123.458C123.258 109.757 123.158 109.879 123.158 109.979C123.158 110.129 123.28 110.25 123.579 110.371C123.972 110.521 124.615 110.543 124.886 110.543C125.95 110.543 127.086 110 127.729 109.457C128.443 108.836 129.457 107.822 129.457 105.622C129.457 104.808 129.207 103.394 128.021 102.259C127.107 101.395 125.643 100.802 123.394 100.802C122.158 100.802 120.252 101.002 119.266 101.002C119.045 101.002 118.623 100.98 118.452 101.002C118.131 101.03 117.888 101.152 117.888 101.352C117.888 101.502 118.159 101.645 118.652 101.723C120.037 101.923 120.009 102.266 120.037 103.159C120.059 103.951 120.109 109.193 120.109 110.007C120.109 111.243 120.059 113.271 119.987 114.485C119.916 115.499 119.645 115.992 118.259 116.291C118.009 116.363 117.766 116.513 117.766 116.684C117.766 116.906 118.038 117.034 118.459 117.034C119.223 117.034 120.237 116.934 120.959 116.934C122.044 116.934 122.937 117.034 123.558 117.034C123.929 117.034 124.372 116.963 124.372 116.734C124.372 116.506 124.172 116.391 123.701 116.263C122.444 115.892 122.244 115.692 122.215 114.085C122.215 113.464 122.165 111.414 122.165 109.164C122.194 106.322 122.194 103.251 122.215 102.73C122.244 102.137 122.365 101.837 122.465 101.766C122.665 101.645 122.908 101.545 123.18 101.545M141.504 102.809C142.368 101.945 143.882 101.402 144.918 101.402C146.053 101.402 147.61 101.923 148.624 102.737C150.452 104.223 151.616 106.815 151.616 109.514C151.616 112.457 150.502 114.463 149.517 115.349C149.245 115.649 148.303 116.534 146.253 116.534C142.297 116.534 139.576 112.307 139.576 108.622C139.576 105.729 140.419 103.873 141.504 102.809ZM154.044 108.772C154.044 104.073 150.209 100.588 145.46 100.588C143.732 100.588 141.604 101.33 140.39 102.316C138.512 103.823 137.177 105.929 137.177 108.972C137.177 111.1 137.919 113.099 139.233 114.563C140.74 116.291 143.14 117.384 145.66 117.384C146.917 117.384 148.974 117.041 150.531 115.949C152.338 114.663 154.044 112.242 154.044 108.779M162.307 100.988C161.764 100.988 161.564 101.109 161.564 101.288C161.564 101.466 161.764 101.659 162.257 101.759C163.421 101.98 163.542 102.452 163.564 102.994C163.585 103.808 163.585 105.515 163.585 106.508C163.585 110.093 163.514 114.028 163.464 114.642C163.342 115.606 162.992 116.077 161.636 116.349C161.243 116.42 161.043 116.62 161.043 116.791C161.043 117.013 161.293 117.063 161.757 117.063C162.107 117.063 163.264 116.941 164.949 116.941C169.97 116.941 172.219 117.091 172.519 117.091C172.619 117.091 173.09 116.941 173.112 116.67C173.312 115.727 173.483 115.213 173.876 113.999C173.976 113.606 173.904 113.335 173.776 113.335C173.647 113.335 173.433 113.435 173.155 113.878C172.49 114.82 172.09 115.192 171.748 115.534C171.255 115.977 170.955 115.977 170.755 116.006C170.384 116.056 169.691 116.077 168.998 116.077C168.184 116.077 167.27 116.056 166.627 115.956C166.427 115.934 165.835 115.363 165.785 115.013C165.685 114.199 165.613 111.821 165.613 109.893C165.613 106.236 165.613 103.737 165.763 102.623C165.813 102.252 165.985 101.98 167.42 101.659C167.791 101.559 167.991 101.409 167.991 101.238C167.991 101.066 167.82 100.966 167.37 100.966C166.777 100.966 165.099 101.038 164.128 101.038C163.414 101.038 162.964 100.988 162.3 100.988M182.581 103.458C182.631 104.273 182.653 107.343 182.653 108.872C182.653 110.971 182.603 113.542 182.531 114.413C182.431 115.577 182.331 115.949 181.096 116.22C180.603 116.32 180.353 116.47 180.353 116.641C180.353 116.813 180.524 116.991 180.996 116.991C181.91 116.991 182.131 116.941 182.874 116.941C183.538 116.941 185.295 117.091 186.559 117.091C186.859 117.091 187.223 116.97 187.223 116.77C187.223 116.599 187.023 116.427 186.58 116.349C184.973 116.027 184.852 115.556 184.773 114.22C184.724 113.428 184.702 111.9 184.702 110.536C184.702 105.687 184.723 104.08 184.852 103.266C184.952 102.602 184.923 101.98 186.359 101.68C186.759 101.609 187.002 101.459 187.002 101.259C187.002 101.059 186.78 100.959 186.38 100.959C185.516 100.959 184.945 101.03 183.738 101.03C182.924 101.03 181.681 100.959 181.039 100.959C180.689 100.959 180.417 101.059 180.417 101.259C180.417 101.43 180.567 101.602 181.11 101.702C182.495 101.952 182.495 102.316 182.567 103.458M207.004 100.988C205.99 101.016 202.627 101.038 201.341 101.038C198.178 101.038 196.2 100.966 195.557 100.888C195.186 100.859 194.793 100.495 194.714 100.416C194.443 100.195 194.443 100.024 194.321 100.024C194.171 100.024 193.95 100.273 193.95 100.416C193.95 101.873 193.479 103.237 193.479 103.708C193.479 103.951 193.579 104.28 193.729 104.28C193.829 104.28 193.979 104.308 194.2 103.787C194.621 102.973 194.914 102.573 195.014 102.502C195.386 102.08 195.907 101.93 196.842 101.93C197.235 101.93 199.413 101.98 199.906 102.052C199.977 102.052 200.106 102.173 200.106 102.373V105.315C200.106 107.215 199.985 112.264 199.935 113.721C199.863 115.577 199.813 115.999 198.078 116.391C197.856 116.441 197.606 116.634 197.606 116.813C197.606 116.963 197.856 117.113 198.349 117.113C198.671 117.113 199.935 116.941 201.17 116.941C202.255 116.941 203.791 117.063 203.991 117.063C204.241 117.063 204.684 117.041 204.684 116.763C204.684 116.591 204.341 116.391 204.019 116.32C202.484 115.97 202.363 115.677 202.241 114.563C202.141 113.649 202.141 111.3 202.141 108.429V102.373C202.141 102.323 202.241 102.08 202.363 102.052C202.663 101.973 205.405 101.973 205.826 102.002C207.361 102.073 207.683 102.202 207.826 103.487C207.897 104.108 207.997 104.28 208.176 104.28C208.376 104.28 208.568 104.03 208.597 103.808C208.747 102.523 208.897 101.73 209.14 100.966C209.261 100.623 209.161 100.395 209.04 100.395C208.94 100.395 208.868 100.445 208.69 100.545C208.34 100.788 207.897 100.938 207.012 100.988M217.845 103.458C217.895 104.273 217.916 107.343 217.916 108.872C217.916 110.971 217.866 113.542 217.795 114.413C217.695 115.577 217.595 115.949 216.36 116.22C215.867 116.32 215.617 116.47 215.617 116.641C215.617 116.813 215.788 116.991 216.26 116.991C217.174 116.991 217.395 116.941 218.138 116.941C218.802 116.941 220.559 117.091 221.823 117.091C222.123 117.091 222.487 116.97 222.487 116.77C222.487 116.599 222.287 116.427 221.844 116.349C220.237 116.027 220.116 115.556 220.037 114.22C219.987 113.428 219.966 111.9 219.966 110.536C219.966 105.687 219.987 104.08 220.116 103.266C220.216 102.602 220.187 101.98 221.623 101.68C222.023 101.609 222.265 101.459 222.265 101.259C222.265 101.059 222.044 100.959 221.644 100.959C220.78 100.959 220.209 101.03 219.002 101.03C218.188 101.03 216.945 100.959 216.31 100.959C215.96 100.959 215.688 101.059 215.688 101.259C215.688 101.43 215.838 101.602 216.381 101.702C217.766 101.952 217.766 102.316 217.838 103.458M241.904 100.988C240.961 100.766 239.847 100.595 238.983 100.595C236.705 100.595 234.406 101.138 232.278 102.873C231.242 103.737 229.557 105.987 229.557 108.807C229.557 111.628 230.692 113.406 231.635 114.492C232.62 115.656 235.17 117.384 238.655 117.384C240.754 117.384 242.761 116.863 243.154 116.691C243.404 116.57 243.818 116.27 243.918 116.049C244.268 115.477 244.832 114.17 244.911 113.549C244.961 113.278 244.932 112.735 244.689 112.735C244.589 112.735 244.489 112.856 244.168 113.378C243.575 114.413 242.954 115.206 241.868 115.777C240.854 116.37 239.64 116.449 239.169 116.449C237.169 116.449 234.299 115.335 232.913 112.492C232.37 111.407 232.049 110.071 232.049 108.415C232.049 104.68 234.599 101.395 238.576 101.395C239.912 101.395 241.176 101.666 242.533 102.68C242.854 102.93 243.325 103.673 243.547 104.537C243.668 104.908 243.818 105.18 243.939 105.18C244.139 105.18 244.332 104.88 244.311 104.365C244.261 103.823 244.139 102.73 244.139 102.216C244.139 101.645 243.889 101.473 243.768 101.473C243.397 101.423 242.533 101.102 241.89 101.002M261.157 109.264C261.179 109.336 261.107 109.464 261.086 109.464C260.272 109.536 258.215 109.514 257.229 109.536C257.129 109.536 257.079 109.464 257.108 109.364C257.308 108.6 258.593 105.137 259.036 103.951C259.108 103.78 259.158 103.801 259.236 103.951C259.457 104.294 260.743 108.008 261.164 109.272M260.372 101.259C260.172 100.716 260.072 100.616 259.979 100.616C259.857 100.616 259.757 100.738 259.586 100.938C259.415 101.209 259.143 101.68 258.993 101.93C258.893 102.13 258.843 102.273 258.822 102.352C258.772 102.502 258.75 102.652 258.601 102.994C257.558 105.515 254.744 112.985 254.173 114.249C253.459 115.856 253.137 115.927 251.895 116.349C251.523 116.47 251.352 116.691 251.352 116.841C251.352 116.991 251.473 117.091 251.923 117.091C252.295 117.091 253.58 116.97 254.494 116.97C255.408 116.97 256.03 117.041 256.451 117.041C256.772 117.041 257.144 116.97 257.144 116.72C257.144 116.549 256.894 116.399 256.472 116.277C255.358 115.927 255.258 115.513 255.258 115.213C255.258 114.599 255.901 112.492 256.544 110.885C256.594 110.807 256.715 110.686 256.815 110.686C257.337 110.614 259.515 110.586 260.871 110.586C261.586 110.586 261.686 110.736 261.714 110.835C262.285 112.421 262.9 114.049 263.1 115.063C263.2 115.584 263.3 116.077 262.107 116.327C261.664 116.399 261.514 116.599 261.514 116.72C261.514 116.841 261.664 117.02 262.278 117.02C262.892 117.02 263.242 116.97 264.035 116.97C265.121 116.97 266.335 117.091 267.149 117.091C267.763 117.091 267.941 116.941 267.941 116.77C267.941 116.599 267.741 116.477 267.349 116.349C266.235 116.077 265.842 115.877 265.021 113.849C264.599 112.835 262.742 107.936 261.457 104.33C260.986 103.044 260.564 101.93 260.372 101.266M75.7897 144.835C75.4255 145.078 74.897 145.192 74.19 145.192H71.4049V142.229H74.19C75.6183 142.229 76.3324 142.722 76.3324 143.707C76.3324 144.214 76.1539 144.593 75.7897 144.835ZM73.9186 138.68C74.5542 138.68 75.047 138.801 75.3969 139.051C75.7468 139.301 75.9182 139.651 75.9182 140.115C75.9182 140.579 75.7468 140.936 75.3969 141.179C75.047 141.422 74.5614 141.543 73.9186 141.543H71.4049V138.68H73.9186ZM76.7395 142.486C76.4538 142.15 76.0539 141.929 75.5397 141.815C75.9182 141.665 76.211 141.436 76.4252 141.129C76.6395 140.829 76.7466 140.458 76.7466 140.022C76.7466 139.379 76.5038 138.879 76.0182 138.522C75.5326 138.172 74.8541 137.994 73.9758 137.994H70.5694V145.885H74.1972C75.1755 145.885 75.9111 145.707 76.411 145.335C76.9109 144.971 77.1608 144.45 77.1608 143.771C77.1608 143.243 77.018 142.814 76.7395 142.479M87.0158 137.987H86.1803L83.4737 142.414L80.7672 137.987H79.8745L83.031 143.15V145.878H83.8522V143.15L87.0087 137.987H87.0158ZM100.499 142.143C100.084 142.486 99.4846 142.657 98.7062 142.657H96.6138V138.708H98.7062C99.4917 138.708 100.084 138.879 100.499 139.222C100.913 139.565 101.12 140.058 101.12 140.693C101.12 141.329 100.913 141.8 100.499 142.143ZM101.099 138.708C100.527 138.23 99.7345 137.987 98.7276 137.987H95.7711V145.878H96.6066V143.386H98.7276C99.7345 143.386 100.52 143.15 101.099 142.672C101.67 142.193 101.955 141.536 101.955 140.693C101.955 139.851 101.67 139.194 101.099 138.708ZM110.739 142.143C110.325 142.486 109.725 142.664 108.947 142.664H106.847V138.708H108.947C109.725 138.708 110.325 138.879 110.739 139.222C111.154 139.565 111.361 140.058 111.361 140.693C111.361 141.329 111.154 141.8 110.739 142.15M112.318 145.878L110.389 143.171C110.968 142.986 111.411 142.679 111.725 142.25C112.039 141.829 112.189 141.308 112.189 140.686C112.189 139.844 111.903 139.187 111.332 138.701C110.761 138.222 109.968 137.98 108.961 137.98H106.005V145.871H106.84V143.371H108.961C109.183 143.371 109.39 143.357 109.59 143.336L111.396 145.871H112.31L112.318 145.878ZM121.558 144.778C121.059 145.064 120.494 145.2 119.866 145.2C119.238 145.2 118.673 145.057 118.166 144.778C117.659 144.5 117.259 144.107 116.974 143.607C116.688 143.107 116.538 142.55 116.538 141.936C116.538 141.322 116.681 140.765 116.974 140.265C117.259 139.765 117.659 139.372 118.166 139.094C118.673 138.815 119.238 138.672 119.866 138.672C120.494 138.672 121.051 138.815 121.558 139.094C122.065 139.372 122.458 139.765 122.744 140.265C123.03 140.765 123.172 141.322 123.172 141.936C123.172 142.55 123.03 143.107 122.744 143.607C122.458 144.107 122.065 144.5 121.558 144.778ZM117.745 145.421C118.381 145.771 119.088 145.942 119.866 145.942C120.644 145.942 121.351 145.771 121.98 145.421C122.608 145.078 123.101 144.593 123.458 143.986C123.822 143.371 124.001 142.686 124.001 141.929C124.001 141.172 123.822 140.486 123.458 139.872C123.101 139.258 122.601 138.78 121.98 138.437C121.351 138.094 120.644 137.915 119.866 137.915C119.088 137.915 118.373 138.087 117.745 138.437C117.109 138.787 116.617 139.265 116.26 139.872C115.903 140.479 115.724 141.165 115.724 141.922C115.724 142.679 115.903 143.364 116.26 143.971C116.617 144.578 117.109 145.057 117.745 145.407M128.621 145.649C129.157 145.835 129.721 145.935 130.307 145.935C130.949 145.935 131.499 145.842 131.942 145.649C132.385 145.457 132.713 145.2 132.927 144.871C133.142 144.543 133.249 144.178 133.249 143.786C133.249 143.307 133.127 142.921 132.877 142.643C132.628 142.364 132.328 142.15 131.971 142.007C131.613 141.872 131.149 141.729 130.571 141.586C130.085 141.465 129.692 141.358 129.407 141.25C129.114 141.15 128.878 141 128.685 140.815C128.493 140.622 128.4 140.372 128.4 140.051C128.4 139.629 128.571 139.287 128.921 139.022C129.271 138.758 129.792 138.622 130.485 138.622C130.842 138.622 131.214 138.68 131.592 138.787C131.971 138.894 132.32 139.058 132.649 139.279L132.927 138.615C132.613 138.401 132.235 138.23 131.806 138.101C131.378 137.98 130.935 137.915 130.485 137.915C129.835 137.915 129.3 138.015 128.864 138.208C128.428 138.401 128.107 138.665 127.893 138.994C127.686 139.322 127.579 139.686 127.579 140.079C127.579 140.565 127.707 140.958 127.957 141.243C128.207 141.529 128.507 141.743 128.864 141.879C129.214 142.022 129.692 142.165 130.285 142.314C130.778 142.436 131.164 142.543 131.442 142.643C131.721 142.743 131.956 142.886 132.149 143.079C132.342 143.264 132.435 143.514 132.435 143.836C132.435 144.25 132.256 144.585 131.906 144.842C131.556 145.1 131.021 145.228 130.314 145.228C129.807 145.228 129.321 145.142 128.85 144.964C128.378 144.785 128 144.557 127.714 144.271L127.386 144.914C127.679 145.221 128.093 145.471 128.628 145.657M142.047 142.136C141.633 142.479 141.033 142.65 140.254 142.65H138.162V138.701H140.254C141.04 138.701 141.633 138.872 142.047 139.215C142.461 139.558 142.668 140.051 142.668 140.686C142.668 141.322 142.461 141.793 142.047 142.136ZM142.647 138.701C142.075 138.222 141.283 137.98 140.276 137.98H137.319V145.871H138.155V143.379H140.276C141.283 143.379 142.068 143.143 142.647 142.664C143.218 142.186 143.504 141.529 143.504 140.686C143.504 139.844 143.218 139.187 142.647 138.701ZM148.396 145.15V142.222H152.473V141.515H148.396V138.708H152.973V137.987H147.56V145.878H153.137V145.157H148.388L148.396 145.15ZM158.622 145.421C159.25 145.764 159.95 145.942 160.736 145.942C161.321 145.942 161.864 145.842 162.364 145.642C162.864 145.442 163.285 145.157 163.628 144.778L163.1 144.25C162.493 144.885 161.714 145.2 160.764 145.2C160.143 145.2 159.572 145.057 159.065 144.771C158.551 144.485 158.151 144.093 157.865 143.6C157.579 143.107 157.429 142.55 157.429 141.929C157.429 141.308 157.572 140.758 157.865 140.258C158.151 139.758 158.551 139.372 159.065 139.087C159.572 138.801 160.143 138.658 160.764 138.658C161.707 138.658 162.478 138.972 163.1 139.594L163.628 139.065C163.285 138.687 162.864 138.401 162.364 138.208C161.864 138.015 161.329 137.915 160.743 137.915C159.965 137.915 159.258 138.087 158.622 138.437C157.994 138.78 157.494 139.265 157.137 139.872C156.779 140.486 156.601 141.172 156.601 141.929C156.601 142.686 156.779 143.371 157.137 143.986C157.494 144.6 157.986 145.078 158.615 145.421M169.091 145.871H169.927V138.701H172.697V137.98H166.32V138.701H169.091V145.871ZM176.282 145.871H177.118V137.98H176.282V145.871ZM187.566 137.98L184.524 144.835L181.503 137.98H180.603L184.095 145.871H184.916L188.408 137.98H187.566ZM192.422 143.086L194.314 138.851L196.207 143.086H192.422ZM197.464 145.871H198.342L194.736 137.98H193.914L190.308 145.871H191.179L192.129 143.764H196.528L197.478 145.871H197.464Z" fill="#FFE4BD"/>
</svg>
